<svg width="1017" height="453" viewBox="0 0 1017 453" fill="none" xmlns="http://www.w3.org/2000/svg">
<g clip-path="url(#clip0_1_230)">
<path d="M6.90916 40.4491L19.6945 88.7933L49.8427 79.9284L37.0573 31.5842L6.90916 40.4491Z" fill="#362E2D"/>
<path d="M4.20001 43.7592L6.80001 40.7013L35.5 35.5345L48.3 79.0828L37.5 104.706L17.3 90.7871L4.20001 43.7592Z" fill="white"/>
<path d="M25.8 62.4227L38.6 106.709L16.9 92.0524L4.20001 43.7592L25.8 62.4227Z" fill="#4E3734"/>
<path d="M6.79999 41.5448L33.6 40.4904L46.6 83.0897L48.3 79.0828L35.5 35.5345L7.59999 40.4904L6.79999 41.5448Z" fill="#F7F7F7"/>
<path d="M126.9 112.087C143.745 112.087 157.4 97.688 157.4 79.9263C157.4 62.1647 143.745 47.766 126.9 47.766C110.055 47.766 96.4 62.1647 96.4 79.9263C96.4 97.688 110.055 112.087 126.9 112.087Z" fill="#8C503E"/>
<path d="M266.2 384.342C266.2 384.342 270 394.36 271.7 399.843C273.4 405.326 276.4 412.18 278.9 412.39C281.4 412.601 281.9 402.373 280.3 386.768C278.7 371.267 279.9 369.053 271.8 369.159C268.2 369.159 266.2 368.842 266.2 368.842V384.342Z" fill="#FF6ED9"/>
<path d="M42.2 438.54C42.2 438.54 31.3 440.333 25.6 442.758C19.9 445.183 15.5 447.609 15.5 450.561C15.5 452.881 25.9 452.143 42.1 452.143C58.7 452.248 63.4 452.67 60.5 443.813C59.5 440.755 56.9 438.224 56.9 438.224L42.2 438.54Z" fill="#FF6ED9"/>
<path d="M157.4 79.9263C157.4 62.1063 143.7 47.766 126.9 47.766C122.3 47.766 117.9 48.8204 114 50.8239L113.2 51.2456C112.2 53.2491 111.6 55.4634 111.6 57.8886C111.6 65.586 117.5 71.8072 124.8 71.8072C125.4 71.8072 126 71.7017 126.7 71.7017C125.9 72.7562 125.5 74.1269 125.5 75.6031C125.5 78.8719 127.9 81.6134 130.9 82.0352C130.6 82.8788 130.5 83.7223 130.5 84.5658C130.5 88.5727 133.6 91.8415 137.4 91.8415H137.5C138.1 94.7939 140.5 96.9028 143.5 96.9028C144.3 96.9028 145.1 96.6919 145.8 96.481C146.2 98.6953 148.1 100.382 150.3 100.382L152 98.6953C155.3 93.4231 157.4 86.8856 157.4 79.9263Z" fill="#4E3734"/>
<path d="M35.8 117.781C35.8 117.781 36.4 107.342 33.5 101.753C30.6 96.1647 24.4 93.1068 21.5 88.2564C18.7 83.406 18.8 76.763 16.1 76.1304C13.4 75.4977 8.89999 86.8856 11.8 92.3687C14.6 97.8518 18.2 101.437 20 107.025C21.8 112.614 24.6 117.57 26.3 119.151C28.1 120.733 35.8 117.781 35.8 117.781Z" fill="#8C503E"/>
<path d="M206.3 243.153C206.3 243.153 209.8 252.96 214.7 256.755C219.5 260.551 226.4 260.657 230.9 263.926C235.4 267.089 237.8 273.205 240.5 272.572C243.2 271.939 242.8 259.602 238.1 255.912C233.4 252.116 228.7 250.429 224.9 246.106C221.1 241.782 216.6 238.514 214.4 237.776C212.2 237.038 206.3 243.153 206.3 243.153Z" fill="#8C503E"/>
<path d="M90.2 264.769C90.2 264.769 70.7 307.685 62.2 341.005C51 385.08 42.2 438.646 42.2 438.646L56.8 438.435C56.8 438.435 74.5 416.714 100.1 372.744C125.9 328.352 137.6 300.198 137.6 300.198C137.6 300.198 154.9 365.995 166.2 376.329C182 390.774 218.9 390.142 230.6 389.298C242.3 388.455 266.1 384.448 266.1 384.448V368.948C266.1 368.948 236.1 363.886 224.1 358.614C212.1 353.342 197.8 349.019 197.8 349.019C197.8 349.019 193 313.801 189.5 295.137C186 276.473 181.2 255.068 181.2 255.068L90.2 264.769Z" fill="#5441AF"/>
<path d="M137.7 300.093L143.5 287.229C143.5 287.229 146.8 294.083 146.4 302.834C146.1 311.586 144.3 323.29 144.3 323.29L137.7 300.093Z" fill="#4F3D9D"/>
<path d="M0 132.754C0 132.754 5.2 132.965 13.7 138.764C32.7 151.734 38.9 179.782 61.9 183.894C81.2 187.374 93.7 181.258 93.7 181.258C93.7 181.258 86.2 203.928 84.2 214.262C82.2 224.595 82.4 243.259 74.4 251.483C66.4 259.708 62.7 263.609 62.7 263.609C62.7 263.609 97.7 270.252 126 264.664C154.3 259.075 169.7 257.072 174.8 257.283C180 257.494 188 258.548 188 258.548C188 258.548 184.8 250.956 181.8 243.259C178.8 235.561 178.1 227.758 178.1 227.758C178.1 227.758 197.1 243.786 200.1 249.058C203.1 254.33 203.6 263.082 203.6 263.082C203.6 263.082 207.9 253.276 210.9 249.902C213.9 246.527 216.2 242.521 219.9 239.568C223.6 236.616 225.7 234.296 225.7 234.296C225.7 234.296 221.7 234.612 218.2 231.344C214.7 227.969 195 202.557 191 198.445C187 194.438 172 177.145 172 177.145C172 177.145 170.2 122.104 139.3 123.158C119.8 123.791 108.5 128.958 96.1 136.022C83.8 143.087 72.9 150.785 72.9 150.785C72.9 150.785 51.9 137.393 44.6 121.366C42.1 115.988 41 111.981 41 111.981C41 111.981 33.3 113.457 22.7 118.941C11.4 124.951 0 132.754 0 132.754Z" fill="#FF353A"/>
<path d="M93.7 181.258C93.7 181.258 104.6 180.941 114.9 177.673C125.2 174.298 136.3 169.132 139 162.489C141.7 155.846 142.9 149.097 142.9 149.097C142.9 149.097 144.8 160.169 140.4 170.608C136 181.047 121.8 186.108 116.5 188.112C111.2 190.115 89.8 193.7 89.8 193.7L93.7 181.258Z" fill="#E2303D"/>
<path d="M173.2 188.955C173.2 188.955 174.8 207.513 175.5 212.996C176.2 218.479 178.3 227.969 178.3 227.969L183.5 232.398C183.5 232.398 179.8 220.694 178.4 212.364C176.8 204.034 173.2 188.955 173.2 188.955Z" fill="#E2303D"/>
<path d="M134.4 257.494C130.9 257.494 128.1 254.541 128.1 250.851C128.1 247.16 130.9 244.208 134.4 244.208C137.9 244.208 140.7 247.16 140.7 250.851C140.7 254.541 137.9 257.494 134.4 257.494ZM134.4 245.262C131.5 245.262 129.1 247.793 129.1 250.851C129.1 253.909 131.5 256.439 134.4 256.439C137.3 256.439 139.7 253.909 139.7 250.851C139.7 247.793 137.4 245.262 134.4 245.262Z" fill="#5441AF"/>
<path d="M162 151.101C164 151.101 165.8 150.046 167 148.465C166.9 148.043 166.7 147.621 166.6 147.199C165.7 148.887 164 149.941 162.1 149.941C159.2 149.941 156.8 147.41 156.8 144.352C156.8 141.295 159.2 138.764 162.1 138.764C162.4 138.764 162.7 138.764 163 138.869C162.8 138.448 162.6 138.131 162.4 137.71C162.3 137.71 162.2 137.71 162.1 137.71C158.6 137.71 155.8 140.662 155.8 144.352C155.8 148.043 158.5 151.101 162 151.101Z" fill="#5441AF"/>
<path d="M79.6 260.446C84.6 260.446 88.7 256.123 88.7 250.851C88.7 245.578 84.7 241.361 79.7 241.255C79.6 241.572 79.5 241.993 79.4 242.31C79.5 242.31 79.5 242.31 79.6 242.31C84.1 242.31 87.7 246.106 87.7 250.851C87.7 255.596 84.1 259.392 79.6 259.392C76.2 259.392 73.2 257.072 72 253.908C71.7 254.225 71.5 254.436 71.2 254.752C72.7 258.126 75.9 260.446 79.6 260.446Z" fill="#5441AF"/>
<path d="M104 155.951C100 155.951 96.8 152.577 96.8 148.359C96.8 144.142 100 140.767 104 140.767C108 140.767 111.2 144.142 111.2 148.359C111.2 152.577 107.9 155.951 104 155.951ZM104 141.927C100.6 141.927 97.8 144.88 97.8 148.465C97.8 152.05 100.6 155.002 104 155.002C107.4 155.002 110.2 152.05 110.2 148.465C110.2 144.88 107.4 141.927 104 141.927Z" fill="#5441AF"/>
<path d="M46.8 141.927C44.3 141.927 42.2 139.713 42.2 137.077C42.2 134.441 44.3 132.226 46.8 132.226C49.3 132.226 51.4 134.441 51.4 137.077C51.4 139.713 49.3 141.927 46.8 141.927ZM46.8 133.281C44.8 133.281 43.2 134.968 43.2 137.077C43.2 139.186 44.8 140.873 46.8 140.873C48.8 140.873 50.4 139.186 50.4 137.077C50.4 134.968 48.8 133.281 46.8 133.281Z" fill="#5441AF"/>
<path d="M194.9 202.874C194.3 204.034 193.1 204.772 191.8 204.772C189.8 204.772 188.2 203.085 188.2 200.976C188.2 199.5 189 198.234 190.2 197.602C190 197.391 189.7 197.074 189.5 196.863C188.1 197.707 187.2 199.289 187.2 201.081C187.2 203.717 189.3 205.932 191.8 205.932C193.4 205.932 194.8 205.088 195.6 203.823C195.4 203.401 195.2 203.085 194.9 202.874Z" fill="#5441AF"/>
<path d="M146.4 191.169C143.9 191.169 141.8 188.955 141.8 186.319C141.8 183.683 143.9 181.469 146.4 181.469C148.9 181.469 151 183.683 151 186.319C151 188.955 149 191.169 146.4 191.169ZM146.4 182.628C144.4 182.628 142.8 184.316 142.8 186.424C142.8 188.533 144.4 190.22 146.4 190.22C148.4 190.22 150 188.533 150 186.424C150 184.316 148.4 182.628 146.4 182.628Z" fill="#5441AF"/>
<path d="M14.2 134.335C12.6 134.335 11.2 135.39 10.5 136.761C10.8 136.971 11.1 137.077 11.4 137.288C11.9 136.128 13 135.39 14.2 135.39C15.9 135.39 17.3 136.866 17.3 138.659C17.3 139.502 17 140.346 16.4 140.873C16.7 141.084 16.9 141.295 17.2 141.505C17.9 140.767 18.3 139.713 18.3 138.659C18.3 136.233 16.5 134.335 14.2 134.335Z" fill="#5441AF"/>
<path d="M98.2 214.367C95.2 214.367 92.8 211.836 92.8 208.673C92.8 205.51 95.2 202.979 98.2 202.979C101.2 202.979 103.6 205.51 103.6 208.673C103.6 211.836 101.2 214.367 98.2 214.367ZM98.2 203.928C95.8 203.928 93.8 206.037 93.8 208.568C93.8 211.098 95.8 213.207 98.2 213.207C100.6 213.207 102.6 211.098 102.6 208.568C102.6 206.037 100.7 203.928 98.2 203.928Z" fill="#5441AF"/>
<path d="M196.9 236.721C194.7 236.721 192.8 238.092 191.9 240.095C192.2 240.306 192.4 240.623 192.7 240.833C193.3 239.041 194.9 237.67 196.9 237.67C199.3 237.67 201.3 239.779 201.3 242.31C201.3 244.313 200.1 246 198.4 246.633C198.7 246.949 198.9 247.16 199.1 247.476C201 246.527 202.3 244.629 202.3 242.31C202.3 239.252 199.9 236.721 196.9 236.721Z" fill="#5441AF"/>
<path d="M81.5 175.247C79.2 175.247 77.4 173.349 77.4 170.924C77.4 168.499 79.2 166.601 81.5 166.601C83.8 166.601 85.6 168.499 85.6 170.924C85.6 173.349 83.8 175.247 81.5 175.247ZM81.5 167.656C79.8 167.656 78.4 169.132 78.4 170.924C78.4 172.717 79.8 174.193 81.5 174.193C83.2 174.193 84.6 172.717 84.6 170.924C84.6 169.132 83.2 167.656 81.5 167.656Z" fill="#5441AF"/>
<path d="M162 228.075C158.8 228.075 156.3 225.333 156.3 222.065C156.3 218.796 158.9 216.054 162 216.054C165.1 216.054 167.7 218.796 167.7 222.065C167.7 225.333 165.2 228.075 162 228.075ZM162 217.003C159.4 217.003 157.3 219.218 157.3 221.959C157.3 224.701 159.4 226.915 162 226.915C164.6 226.915 166.7 224.701 166.7 221.959C166.7 219.218 164.6 217.003 162 217.003Z" fill="#5441AF"/>
<path d="M121.9 225.228C120.2 225.228 118.9 223.752 118.9 222.064C118.9 220.272 120.3 218.901 121.9 218.901C123.5 218.901 124.9 220.377 124.9 222.064C124.9 223.752 123.6 225.228 121.9 225.228ZM121.9 219.85C120.8 219.85 119.9 220.799 119.9 221.959C119.9 223.119 120.8 224.068 121.9 224.068C123 224.068 123.9 223.119 123.9 221.959C123.9 220.799 123 219.85 121.9 219.85Z" fill="#5441AF"/>
<path d="M49.3 178.516C50.1 177.462 50.6 176.091 50.6 174.509C50.6 170.819 47.8 167.866 44.3 167.866C42.7 167.866 41.2 168.499 40.1 169.554C40.3 169.87 40.6 170.081 40.8 170.397C41.7 169.554 43 168.921 44.3 168.921C47.2 168.921 49.6 171.451 49.6 174.509C49.6 175.775 49.2 176.935 48.5 177.884C48.7 178.094 49 178.305 49.3 178.516Z" fill="#5441AF"/>
<path d="M26.3 442.126C26.3 442.126 27.4 442.758 28.1 443.918C28.8 445.078 28.6 446.871 28.6 446.871" stroke="#5441AF" stroke-miterlimit="10"/>
<path d="M30 440.544C30 440.544 31.1 441.177 31.8 442.336C32.5 443.496 32.3 445.289 32.3 445.289" stroke="#5441AF" stroke-miterlimit="10"/>
<path d="M33.6 439.595C33.6 439.595 34.7 440.228 35.4 441.387C36.1 442.547 35.9 444.34 35.9 444.34" stroke="#5441AF" stroke-miterlimit="10"/>
<path d="M36.9 438.435C36.9 438.435 38 439.068 38.7 440.228C39.4 441.387 39.2 443.18 39.2 443.18" stroke="#5441AF" stroke-miterlimit="10"/>
<path d="M270.9 399.105C270.9 399.105 271.4 397.839 272.5 397.101C273.6 396.363 275.3 396.468 275.3 396.468" stroke="#5441AF" stroke-miterlimit="10"/>
<path d="M269.2 395.309C269.2 395.309 269.7 394.043 270.8 393.305C271.9 392.567 273.6 392.672 273.6 392.672" stroke="#5441AF" stroke-miterlimit="10"/>
<path d="M268.2 391.513C268.2 391.513 268.7 390.247 269.8 389.509C270.9 388.771 272.6 388.876 272.6 388.876" stroke="#5441AF" stroke-miterlimit="10"/>
<path d="M266.9 388.138C266.9 388.138 267.4 386.873 268.5 386.135C269.6 385.397 271.3 385.502 271.3 385.502" stroke="#5441AF" stroke-miterlimit="10"/>
<path d="M523.1 114.196L554.9 154.475L540.1 177.462L509.5 139.397L523.1 114.196Z" fill="#4F3D9D"/>
<path d="M509.5 142.033L509.6 139.608L523.2 115.777L553.3 154.475L543 170.081L532.2 165.547L509.5 142.033Z" fill="white"/>
<path d="M562.5 185.792L564 184.316L536.8 149.519L509.5 141.295V142.033L517.2 152.472L562.5 185.792Z" fill="#F7F7F7"/>
<path d="M536.2 150.574L564 186.53L538.7 181.574L509.5 142.033L536.2 150.574Z" fill="#5441AF"/>
<path d="M509.5 139.397V142.033L510.1 142.244L510 138.342L509.5 139.397Z" fill="#362E2D"/>
<path d="M600.6 283.855C600.6 283.855 579.8 302.834 571.8 310.743C563.8 318.651 559.8 321.814 557.8 327.614C555.8 333.413 551.3 375.063 550.5 388.033C549.7 401.003 549 428.945 549 428.945H562.8C562.8 428.945 567.8 410.492 572.8 399.632C577.8 388.771 585.1 376.434 588.3 366.944C591.5 357.454 593.1 344.485 593.1 344.485C593.1 344.485 605.9 343.219 620.9 335.311C635.9 327.403 642.2 323.396 642.2 323.396C642.2 323.396 651.5 342.903 659.5 359.247C667.5 375.591 670.5 380.652 677.5 387.717C684.5 394.781 711.7 407.118 724.2 411.125C741.5 416.608 756.6 418.717 756.6 418.717L759.1 404.693C759.1 404.693 739.1 394.043 728.2 386.135C718.2 378.859 709.9 370.635 707.4 363.781C704.9 356.927 701.3 317.807 698.1 300.198C694.9 282.589 688.6 275.103 688.6 275.103L600.6 283.855Z" fill="#FF6ED9"/>
<path d="M642.1 323.396C642.1 323.396 646.2 321.393 649.7 319.073C653.2 316.753 656.1 314.222 656.1 314.222C656.1 314.222 655.3 320.022 652.8 325.083C650.3 330.144 647.3 334.362 647.3 334.362L642.1 323.396Z" fill="#FF5ED2"/>
<path d="M605.4 329.828L599.4 324.872L604.1 318.546L610.1 323.501L605.4 329.828ZM600.8 324.767L605.2 328.352L608.6 323.712L604.2 320.127L600.8 324.767Z" fill="#5441AF"/>
<path d="M569.2 333.097L564.5 331.831L565.7 326.876L570.4 328.141L569.2 333.097ZM565.7 331.093L568.5 331.831L569.2 328.879L566.4 328.141L565.7 331.093Z" fill="#5441AF"/>
<path d="M638.1 308.423L633.4 307.158L634.6 302.202L639.3 303.467L638.1 308.423ZM634.6 306.42L637.4 307.158L638.1 304.205L635.3 303.467L634.6 306.42Z" fill="#5441AF"/>
<path d="M583.8 354.818L577.4 348.702L583.2 341.954L589.6 348.07L583.8 354.818ZM578.8 348.702L583.7 353.447L588.2 348.281L583.3 343.536L578.8 348.702Z" fill="#5441AF"/>
<path d="M669.4 309.583L663.7 304.311L668.7 298.3L674.4 303.573L669.4 309.583ZM665.1 304.311L669.3 308.212L673 303.783L668.8 299.882L665.1 304.311Z" fill="#5441AF"/>
<path d="M562.2 418.19L557.5 416.714L558.9 411.758L563.6 413.234L562.2 418.19ZM558.8 415.976L561.5 416.819L562.3 413.972L559.6 413.129L558.8 415.976Z" fill="#5441AF"/>
<path d="M555.9 398.577L554.4 391.091L561.5 389.509L563 396.996L555.9 398.577ZM555.6 391.829L556.7 397.312L561.9 396.152L560.8 390.669L555.6 391.829Z" fill="#5441AF"/>
<path d="M553.2 359.985C553.2 360.407 553.1 360.934 553.1 361.356L554.4 360.512L556.9 364.519L553.1 367.155L552.6 366.417C552.5 366.944 552.5 367.577 552.4 368.104L552.7 368.631L558.2 364.941L554.7 359.141L553.2 359.985Z" fill="#5441AF"/>
<path d="M591.2 298.089L586.7 300.936L585.1 298.195C584.8 298.406 584.6 298.617 584.3 298.933L586.3 302.413L592.5 298.511L589.8 293.872C589.5 294.083 589.3 294.293 589 294.61L591.2 298.089Z" fill="#5441AF"/>
<path d="M681.5 362.516L676.7 356.294L682.6 351.233L687.4 357.454L681.5 362.516ZM678.2 356.505L681.7 361.039L686 357.349L682.5 352.815L678.2 356.505Z" fill="#5441AF"/>
<path d="M684.3 386.24L680 383.921L682.2 379.387L686.5 381.706L684.3 386.24ZM681.3 383.499L683.9 384.87L685.2 382.128L682.6 380.757L681.3 383.499Z" fill="#5441AF"/>
<path d="M689 323.923L684.7 321.603L686.9 317.069L691.2 319.389L689 323.923ZM686 321.076L688.6 322.447L689.9 319.705L687.3 318.335L686 321.076Z" fill="#5441AF"/>
<path d="M709.8 368.737C709.6 368.42 709.4 368.21 709.2 367.893L705.6 370.529L701.8 364.73L706.5 361.356C706.4 361.039 706.3 360.618 706.3 360.196L700.5 364.414L705.4 371.9L709.8 368.737Z" fill="#5441AF"/>
<path d="M746.6 408.278L739.3 408.173L739.4 400.475L746.7 400.581L746.6 408.278ZM740.3 407.118L745.6 407.224L745.7 401.635L740.4 401.53L740.3 407.118Z" fill="#5441AF"/>
<path d="M712 405.115L709.8 398.577L716 396.258L718.2 402.795L712 405.115ZM711.1 399.21L712.6 403.744L716.9 402.162L715.4 397.628L711.1 399.21Z" fill="#5441AF"/>
<path d="M653.3 346.699L662.4 350.39L659.3 358.93C659.3 359.036 659.4 359.141 659.4 359.141C659.6 359.458 659.7 359.774 659.9 360.196L663.7 349.757L652.6 345.223C652.8 345.75 653 346.172 653.3 346.699Z" fill="#5441AF"/>
<path d="M572 380.546L577.5 388.56L578.8 387.506C579.2 386.768 579.5 386.135 579.9 385.397L577.7 387.084L573.4 380.757L579.4 376.223L582.4 380.546C582.6 380.23 582.7 379.808 582.9 379.492L579.7 374.747L572 380.546Z" fill="#5441AF"/>
<path d="M643.8 139.608C660.645 139.608 674.3 125.209 674.3 107.447C674.3 89.6855 660.645 75.2869 643.8 75.2869C626.955 75.2869 613.3 89.6855 613.3 107.447C613.3 125.209 626.955 139.608 643.8 139.608Z" fill="#DF8E89"/>
<path d="M549.1 428.84C549.1 428.84 549.4 432.847 547.8 433.69C544.7 435.588 539.6 438.646 536.7 440.649C532.4 443.602 527.1 448.769 527.6 451.405C528.1 453.935 537.2 451.616 550.4 446.238C563.6 440.966 566.1 442.442 563.8 434.217C562.8 430.527 562.5 428.523 562.5 428.523L549.1 428.84Z" fill="#5441AF"/>
<path d="M756.4 418.612C756.4 418.612 760.1 419.139 760.7 420.931C761.8 424.517 763.7 430.421 765 433.796C766.9 438.857 770.7 445.289 773.2 445.289C775.7 445.289 775.3 435.377 773 420.721C770.7 406.064 772.6 403.744 764.5 404.482C760.9 404.799 759 404.693 759 404.693L756.4 418.612Z" fill="#5441AF"/>
<path d="M551.9 187.69C551.9 187.69 549.6 177.567 545.2 173.139C540.9 168.71 534.1 167.656 530 163.965C525.9 160.275 524.2 153.842 521.5 154.053C518.8 154.264 517.7 166.601 521.9 170.924C526.1 175.248 530.6 177.567 533.9 182.418C537.2 187.268 541.3 191.064 543.3 192.013C545.3 192.962 551.9 187.69 551.9 187.69Z" fill="#DF8E89"/>
<path d="M703.7 77.0794C703.7 77.0794 703.5 69.9092 706.4 64.3207C709.3 58.7322 717.5 55.358 720.3 50.5076C723.1 45.6572 727.7 40.8068 730.4 40.1741C733.1 39.5414 732.9 48.2933 730.1 53.7763C727.3 59.2594 721.2 60.6302 719.4 66.3241C717.6 72.0181 714.8 76.8685 713.2 78.4502C711.5 79.9264 703.7 77.0794 703.7 77.0794Z" fill="#DF8E89"/>
<path d="M622.2 71.3854C622.2 71.3854 620.2 84.5659 631.3 91.7361C642.4 98.9063 650.2 95.3212 650.2 95.3212C650.2 95.3212 647.9 108.08 655.1 118.097C662.3 128.114 665.5 130.118 665.5 130.118C665.5 130.118 683.4 116.304 679.4 101.437C677.1 93.0014 671.7 90.998 671.7 90.998C671.7 90.998 672 82.6679 663.7 76.2359C655.4 69.8038 639.4 75.076 632.7 74.6542C626 74.2324 622.2 71.3854 622.2 71.3854Z" fill="#FF353A"/>
<path d="M542.1 194.227L551.6 183.683L558.6 191.38C558.6 191.38 568.4 193.278 573.2 194.965C578 196.653 582.1 199.5 582.1 199.5C582.1 199.5 605 177.462 617.2 171.03C629.4 164.492 648.4 160.485 663.2 152.788C678 145.091 691.2 130.328 691.2 130.328C691.2 130.328 696.2 113.668 698 106.92C699.8 100.277 702 88.4673 702 88.4673V76.7631H715V87.5183C715 87.5183 719 98.8008 720.2 117.886C721.4 137.077 717 152.472 717 152.472C717 152.472 699.5 169.554 693.3 175.986C687.1 182.523 679 191.486 679 191.486C679 191.486 684.7 213.102 689.5 235.245C694.3 257.388 695.2 277.423 695.2 277.423C695.2 277.423 673.9 294.294 644.5 295.348C615.1 296.402 595.7 284.065 595.7 284.065C595.7 284.065 596 265.824 597.4 253.698C598.7 241.572 604.7 223.646 604.7 223.646C604.7 223.646 599.7 229.656 595 233.347C590.3 237.038 585 239.99 585 239.99C585 239.99 570.8 234.929 562.2 223.119C553.5 211.309 549.5 201.292 549.5 201.292L542.1 194.227Z" fill="#5441AF"/>
<path d="M604.7 223.752C604.7 223.752 610.3 206.564 613.5 197.074C616.7 187.584 618.2 183.999 618.2 183.999C618.2 183.999 610.4 191.802 606 204.772C601.6 217.741 598.3 230.711 598.3 230.711L604.7 223.752Z" fill="#4F3D9D"/>
<path d="M445.2 281.64L447.3 277.633L480.1 257.494L493 281.64L492.4 284.593L458.3 305.471L445.2 281.64Z" fill="#FF5ED2"/>
<path d="M479.429 260.824L445.222 281.649L458.222 305.39L492.429 284.565L479.429 260.824Z" fill="#FF6ED9"/>
<path d="M311.2 437.17C311.2 437.17 305.6 401.002 310.9 365.573C316.3 329.617 325.4 292.079 325.4 292.079C325.4 292.079 354.2 298.406 374.7 294.399C395.2 290.392 419.7 283.116 419.7 283.116C419.7 283.116 423.9 303.467 426.3 327.719C428.6 351.971 427.1 348.281 430.4 360.196C433.7 372.111 445.3 406.907 449.6 417.135C454 427.363 458.7 440.017 458.7 440.017H443.4C443.4 440.017 413.2 406.802 400.4 386.768C387.6 366.733 371.8 331.199 371.8 331.199C371.8 331.199 354.8 368.315 347.9 383.71C341 399.21 323.7 440.649 323.7 440.649L311.2 437.17Z" fill="#4E3734"/>
<path d="M373.9 157.111C390.027 157.111 403.1 143.326 403.1 126.322C403.1 109.317 390.027 95.532 373.9 95.532C357.773 95.532 344.7 109.317 344.7 126.322C344.7 143.326 357.773 157.111 373.9 157.111Z" fill="#DF8E89"/>
<path d="M398.9 142.349C401.6 137.709 403.2 132.121 403.2 126.322C403.2 109.24 390.1 95.532 374 95.532C368 95.532 362.5 97.43 357.9 100.699C357.9 100.699 354.7 111.77 362.5 119.046C370.4 126.427 378.9 122.209 378.9 122.209C378.9 122.209 375.6 132.859 384.2 139.502C391.5 145.196 398.9 142.349 398.9 142.349Z" fill="#4E3734"/>
<path d="M402.2 113.879C416.007 113.879 427.2 102.077 427.2 87.5183C427.2 72.9595 416.007 61.1573 402.2 61.1573C388.393 61.1573 377.2 72.9595 377.2 87.5183C377.2 102.077 388.393 113.879 402.2 113.879Z" fill="#4E3734"/>
<path d="M375.1 313.801C375.1 313.801 374.1 320.971 373.3 324.767C372.5 328.563 371.7 331.304 371.7 331.304L380.3 349.757C380.3 349.757 380.7 334.468 379.1 325.927C377.5 317.386 375.1 313.801 375.1 313.801Z" fill="#362E2D"/>
<path d="M311.2 437.17C311.2 437.17 301.3 438.962 296.2 439.595C291.1 440.228 284.5 442.02 283.9 444.551C283.3 447.081 292.1 449.612 305.9 451.194C319.7 452.67 320.9 454.357 322.1 446.132C322.6 442.336 323.5 440.86 323.5 440.86L311.2 437.17Z" fill="#FF353A"/>
<path d="M445.9 440.228C445.9 440.228 436.8 441.915 432 444.024C427.2 446.132 423.5 448.347 423.5 450.983C423.5 452.986 432.2 452.354 445.8 452.459C459.7 452.564 463.6 452.881 461.2 444.973C460.4 442.231 458.1 440.017 458.1 440.017L445.9 440.228Z" fill="#FF353A"/>
<path d="M282.5 221.01C282.5 221.01 277.9 215 274.7 213.102C271.5 211.204 266 209.095 263.4 207.513C260.8 205.932 255.6 202.241 254.1 204.666C252.6 207.091 254.9 211.309 258.5 213.524C262.1 215.843 267.7 225.966 273 226.704C278.3 227.442 280.6 227.653 280.6 227.653L282.5 221.01Z" fill="#DF8E89"/>
<path d="M459.6 259.286C459.6 259.286 461.9 258.337 465.3 261.922C468.7 265.507 471.9 273.732 473.1 276.79C474.3 279.848 474.6 282.906 475.7 285.014C476.8 287.229 477.1 289.548 475.7 290.392C474.3 291.236 470.1 287.861 466.8 284.382C463.5 280.902 459.5 278.582 457.4 273.837C455.4 269.303 455.6 265.613 455.6 265.613L459.6 259.286Z" fill="#DF8E89"/>
<path d="M284 216.16C284 216.16 299.6 219.112 305.1 220.167C310.6 221.221 317.1 222.486 317.1 222.486C317.1 222.486 332.6 201.608 343.2 190.115C353.8 178.727 359.6 170.819 375.3 170.819C395.5 170.819 419.2 197.812 432.1 213.734C447 232.187 461.2 256.755 461.2 256.755L453.4 269.198C453.4 269.198 435.3 254.752 428.1 250.534C420.9 246.317 410.4 240.728 410.4 240.728C410.4 240.728 414.2 251.589 416.8 263.715C419.4 275.841 419.8 283.011 419.8 283.011C419.8 283.011 403.1 294.926 373.7 296.719C344.3 298.511 325.5 291.974 325.5 291.974C325.5 291.974 327.1 280.059 328.8 272.256C330.5 264.558 332.4 257.704 332.4 257.704C332.4 257.704 321.8 258.653 308.1 253.592C290.3 247.055 279.2 232.398 279.2 232.398L284 216.16Z" fill="#7B6DCF"/>
<path d="M332.3 257.81C332.3 257.81 329.8 267.3 329.1 270.674C328.4 274.048 327.6 278.266 327.6 278.266C327.6 278.266 359 245.895 365.8 237.986C372.6 230.078 384.7 216.054 384.4 203.717C384.1 191.38 381.8 188.639 381.8 188.639C381.8 188.639 383.2 196.547 380.5 204.666C376.7 215.949 360.9 230.605 353.4 237.986C347.2 244.208 332.3 257.81 332.3 257.81Z" fill="#6A5AC1"/>
<path d="M401.4 207.619C401.4 207.619 405.5 220.061 407.1 225.86C408.7 231.66 410.3 240.728 410.3 240.728L416.3 243.997C416.3 243.997 412 230.816 409.3 223.541C406.6 216.265 401.4 207.619 401.4 207.619Z" fill="#6A5AC1"/>
<path d="M404.8 249.164L404.3 253.698L407.5 256.65L403.4 257.494L401.7 261.606L399.6 257.704L395.3 257.388L398.2 254.014L397.3 249.691L401.1 251.483L404.8 249.164Z" fill="#FF6ED9"/>
<path d="M419.7 283.116C419.7 283.116 419.6 281.324 419.2 277.95L417.2 280.48L413.7 280.164L415.6 283.327L414.3 286.385C417.9 284.382 419.7 283.116 419.7 283.116Z" fill="#FF6ED9"/>
<path d="M336.4 200.976L338 203.928L339.3 200.765L342.5 200.027L340 197.812L340.4 194.438L338.4 195.704C337 197.285 335.6 198.972 334.2 200.765L336.4 200.976Z" fill="#FF6ED9"/>
<path d="M337 294.821L340.5 293.977L337.2 291.13L337.6 286.701L334 289.127L330.1 287.44L331.2 291.763L329.9 293.344C331.7 293.766 334.1 294.293 337 294.821Z" fill="#FF6ED9"/>
<path d="M387.4 280.164L389.8 280.902L391.7 279.11L391.8 281.746L394 283.116L391.7 284.065L391.1 286.596L389.5 284.593L387.1 284.804L388.4 282.589L387.4 280.164Z" fill="#FF6ED9"/>
<path d="M339.4 229.024L342.5 229.867L345 227.653L345.2 231.133L347.9 232.82L344.9 234.085L344.2 237.354L342.1 234.718L338.9 235.034L340.7 232.187L339.4 229.024Z" fill="#FF6ED9"/>
<path d="M449.1 237.354L448.8 237.565L445.7 236.721L447 239.884L445.3 242.731L448.5 242.415L450.5 245.051L451.2 241.782L451.8 241.572C451 240.201 450.1 238.83 449.1 237.354Z" fill="#FF6ED9"/>
<path d="M374.7 235.772L376.4 236.194L377.7 235.034L377.8 236.827L379.3 237.776L377.7 238.408L377.3 240.201L376.2 238.83L374.5 239.041L375.4 237.459L374.7 235.772Z" fill="#FF6ED9"/>
<path d="M316 247.687L317.4 246.633V244.84L318.8 245.895L320.4 245.262L319.9 247.055L321 248.531H319.2L318.2 250.007L317.7 248.215L316 247.687Z" fill="#FF6ED9"/>
<path d="M448.9 260.868L450.6 261.29L451.9 260.13L452 261.922L453.5 262.871L451.9 263.609L451.5 265.402L450.4 263.926L448.7 264.137L449.6 262.555L448.9 260.868Z" fill="#FF6ED9"/>
<path d="M374.7 179.149L376.4 179.676L377.7 178.411L377.8 180.309L379.3 181.258L377.7 181.89L377.3 183.683L376.2 182.312L374.5 182.418L375.4 180.836L374.7 179.149Z" fill="#FF6ED9"/>
<path d="M418.9 212.047L420.6 212.469L421.9 211.309L422 213.102L423.5 214.051L421.9 214.683L421.5 216.476L420.4 215.105L418.6 215.316L419.6 213.734L418.9 212.047Z" fill="#FF6ED9"/>
<path d="M294.6 229.551L297.5 230.395L299.8 228.286L300 231.449L302.6 233.136L299.8 234.296L299.1 237.459L297.2 234.929L294.1 235.245L295.8 232.503L294.6 229.551Z" fill="#FF6ED9"/>
<path d="M356.6 261.606L361.8 265.824L367.9 263.609L365.8 270.041L369.6 275.524L363.2 275.419L359.4 281.008L357.5 274.47L351.4 272.361L356.7 268.46L356.6 261.606Z" fill="#FF6ED9"/>
<path d="M359 194.438L363.1 197.707L368 196.02L366.3 201.081L369.4 205.51L364.2 205.404L361.2 209.728L359.7 204.561L354.9 202.979L359.1 199.816L359 194.438Z" fill="#FF6ED9"/>
<path d="M428.1 239.568L425.3 235.034L423.6 240.095L418.6 241.466L422.6 244.84L422.5 247.476C423.2 247.898 423.9 248.215 424.5 248.636L426.6 247.16L431.4 249.164L430 243.997L433.3 239.779L428.1 239.568Z" fill="#FF6ED9"/>
<path d="M395.9 194.438L401.6 191.17L407.4 194.227L406.2 187.479L407 186.635C404.5 184.421 401.9 182.312 399.3 180.414L398.7 181.89L392.3 183.05L397 187.69L395.9 194.438Z" fill="#FF6ED9"/>
<path d="M833.5 265.507C833.5 265.507 829.7 304.522 844.5 350.179C859.3 395.836 877.3 438.33 877.3 438.33H892.6C892.6 438.33 895.1 398.156 894.6 371.795C894.1 345.434 893.8 325.61 893.8 325.61C893.8 325.61 905.7 337.842 912.3 342.27C918.9 346.699 926.7 346.383 935.8 344.485C944.9 342.587 989.7 330.882 989.7 330.882L988.7 317.702C988.7 317.702 969.2 311.059 957.1 308.739C945 306.419 931.3 301.885 931.3 301.885C931.3 301.885 925.4 284.276 918.4 269.62C911.4 254.963 908.6 250.218 908.6 250.218L833.5 265.507Z" fill="#7B6DCF"/>
<path d="M893.8 325.61C893.8 325.61 884.9 318.018 878.9 311.164C872.9 304.311 868.3 296.824 868.3 296.824C868.3 296.824 874.7 312.535 882.9 321.076C890.5 329.09 893.9 331.093 893.9 331.093L893.8 325.61Z" fill="#6A5AC1"/>
<path d="M886.3 350.495L878.1 342.798L888.5 343.219L886.3 350.495Z" fill="#FF6ED9"/>
<path d="M864.9 328.352L868.9 321.603L869.8 329.09L864.9 328.352Z" fill="#FF6ED9"/>
<path d="M886.1 423.357L883.3 415.87L889.6 419.561L886.1 423.357Z" fill="#FF6ED9"/>
<path d="M900.1 280.902L901.9 289.232L894.4 286.491L900.1 280.902Z" fill="#FF6ED9"/>
<path d="M868.8 400.792L873.6 400.159L871.6 404.798L868.8 400.792Z" fill="#FF6ED9"/>
<path d="M920.3 314.328L925.2 313.59L923.1 318.335L920.3 314.328Z" fill="#FF6ED9"/>
<path d="M940.2 322.974L943.8 316.437L947.4 322.447L940.2 322.974Z" fill="#FF6ED9"/>
<path d="M978.3 326.77L983.3 321.814L986.1 326.348L978.3 326.77Z" fill="#FF6ED9"/>
<path d="M871.5 277.317L872.2 272.15L875.9 275.63L871.5 277.317Z" fill="#FF6ED9"/>
<path d="M856.7 360.618L864.8 369.264L853.8 371.9L856.7 360.618Z" fill="#FF6ED9"/>
<path d="M902.2 307.896L898.4 319.389L891.3 310.11L902.2 307.896Z" fill="#FF6ED9"/>
<path d="M957.8 313.59L967.1 322.763L956.7 327.614L957.8 313.59Z" fill="#FF6ED9"/>
<path d="M850.5 291.025L857.5 300.198L860 291.025H850.5Z" fill="#FF6ED9"/>
<path d="M918.4 269.62C918.2 269.092 917.9 268.671 917.7 268.143L914.5 265.613L915.1 283.749L922.2 277.95C921 275.208 919.7 272.361 918.4 269.62Z" fill="#FF6ED9"/>
<path d="M833.1 278.688C833.1 281.113 833.2 283.749 833.3 286.702L838 287.44L833.5 278.371L833.1 278.688Z" fill="#FF6ED9"/>
<path d="M894.6 381.495C894.6 378.121 894.6 374.852 894.5 371.795C894.5 371.162 894.5 370.529 894.5 369.897L879.1 375.063L894.6 381.495Z" fill="#FF6ED9"/>
<path d="M935.1 331.093L923.2 339.634L932.3 345.223C933.4 345.012 934.5 344.801 935.7 344.59C936.6 344.379 938 344.063 939.6 343.747L935.1 331.093Z" fill="#FF6ED9"/>
<path d="M839.6 332.78H850.2L840.6 311.903L837.7 324.45C838.4 327.192 839 329.933 839.6 332.78Z" fill="#FF6ED9"/>
<path d="M873.2 133.281C889.327 133.281 902.4 119.496 902.4 102.491C902.4 85.4867 889.327 71.7017 873.2 71.7017C857.073 71.7017 844 85.4867 844 102.491C844 119.496 857.073 133.281 873.2 133.281Z" fill="#8C503E"/>
<path d="M989.5 330.882C989.5 330.882 992.1 341.849 993.7 347.121C995.3 352.288 998.3 358.825 1000.7 358.93C1003.2 359.036 1003.8 349.335 1002.4 334.573C1001 319.811 1002.2 317.807 994.1 317.913C990.5 317.913 988.6 317.702 988.6 317.702L989.5 330.882Z" fill="#4E3734"/>
<path d="M877.3 438.33C877.3 438.33 866.9 440.649 861.2 442.969C855.5 445.289 851.1 447.82 851.1 450.772C851.1 453.092 861.5 452.354 877.7 452.354C894.3 452.459 899 452.881 896.1 444.024C895.1 440.966 892.6 438.224 892.6 438.224H877.3V438.33Z" fill="#4E3734"/>
<path d="M819.1 61.79C819.1 61.79 816.7 54.3035 817 50.1912C817.3 46.0789 818.5 39.7523 818.7 36.3781C818.9 33.0039 818.7 26.1501 821.5 25.9392C824.3 25.7283 826.4 30.0515 826.3 34.691C826.2 39.3305 831.3 49.9803 829 55.4634C826.7 60.9465 825.6 63.2663 825.6 63.2663L819.1 61.79Z" fill="#8C503E"/>
<path d="M990.1 148.887C990.1 148.887 997.2 146.356 1000.1 143.72C1003 141.084 1007.1 136.233 1009.6 134.019C1012.1 131.805 1017.4 127.798 1015.8 125.373C1014.2 122.947 1009.7 123.686 1006.2 126.638C1002.8 129.485 991.6 131.594 988.8 136.761C986 141.927 985 144.352 985 144.352L990.1 148.887Z" fill="#8C503E"/>
<path d="M813.3 59.892L829.8 63.8989C829.8 63.8989 828.2 106.287 829.5 112.087C831.3 119.679 861.3 144.774 861.3 144.774C861.3 144.774 893.8 145.091 904.3 149.308C914.8 153.526 925.8 161.223 935.8 161.962C945.8 162.7 982.6 139.818 982.6 139.818L994.4 152.472C994.4 152.472 983.9 167.128 976.6 174.404C967.1 183.894 951.6 197.074 940.8 198.656C930 200.238 896.5 187.057 896.5 187.057C896.5 187.057 904 214.473 909.7 226.388C915.5 238.303 921 246.949 921 246.949C921 246.949 895.1 263.293 873.2 267.827C851.3 272.361 826.5 267.827 826.5 267.827C826.5 267.827 819.7 248.531 825 217.214C830.3 185.897 834 178.2 834 178.2C834 178.2 807.7 140.556 803.5 125.162C799.3 109.767 813.3 59.892 813.3 59.892Z" fill="#FF6ED9"/>
<path d="M882.8 171.241C882.8 171.241 887.6 178.938 891 182.101C894.3 185.159 896.6 187.057 896.6 187.057L901.7 204.35C901.7 204.35 892.4 197.074 888.9 189.904C885.2 182.629 882.8 171.241 882.8 171.241Z" fill="#FF5ED2"/>
<path d="M834 177.989C834 177.989 837.6 167.339 843.9 159.536C851.1 150.785 861.2 144.774 861.2 144.774L857.9 142.033C857.9 142.033 848.8 145.723 840.7 155.213C833.7 163.438 830.8 173.56 830.8 173.56L834 177.989Z" fill="#FF5ED2"/>
<path d="M902.5 102.491C902.5 85.4094 889.4 71.7017 873.3 71.7017C866.7 71.7017 860.5 74.0215 855.6 78.0283C855.6 78.0283 848.5 88.0455 858.3 94.4776C868.1 100.91 874.9 96.1647 874.9 96.1647C874.9 96.1647 877.4 98.4844 877.2 102.597C876.7 110.294 866.9 112.087 867.1 121.998C867.4 135.706 881.9 133.597 881.9 140.873C881.9 147.199 874.2 151.101 873.5 159.536C872.8 168.183 876.7 174.615 882.7 175.986C902.3 180.52 908.5 156.478 909.5 149.73C910.5 142.982 908.1 129.907 904.5 117.148C903.4 113.036 902.5 102.491 902.5 102.491Z" fill="white"/>
<path d="M835.034 1.77981L794.936 28.8279L811.803 56.6304L851.902 29.5823L835.034 1.77981Z" fill="#4F3D9D"/>
<path d="M831.1 0L834.7 1.6871L847.8 29.2079L812 54.8307L792.3 59.892V26.9936L831.1 0Z" fill="white"/>
<path d="M831.3 33.6366L791.2 60.7356L791.1 26.9936L831.1 0L831.3 33.6366Z" fill="#5441AF"/>
<path d="M831.1 0L834.9 1.89799L835.1 2.53065L831.1 0.948994V0Z" fill="#4F3D9D"/>
<path d="M833.9 2.00342L842.8 28.7861L804.6 56.7287L812 54.8307L847.8 29.2079L835.1 2.53064L833.9 2.00342Z" fill="#F7F7F7"/>
<path d="M824.5 53.0382L825.2 45.3408L828.1 43.3374L828.9 46.5007L824.5 53.0382Z" fill="#8C503E"/>
<rect width="5.12936" height="17.4978" transform="matrix(-0.710564 0.703633 -0.665093 -0.74676 18.2824 258.751)" fill="#FFEFF0"/>
</g>
<defs>
<clipPath id="clip0_1_230">
<rect width="1016.1" height="452.459" fill="white"/>
</clipPath>
</defs>
</svg>
